<?xml version="1.0" standalone="no"?>
<!DOCTYPE svg PUBLIC "-//W3C//DTD SVG 20010904//EN"
 "http://www.w3.org/TR/2001/REC-SVG-20010904/DTD/svg10.dtd">
<svg version="1.0" xmlns="http://www.w3.org/2000/svg"
 width="968.000000pt" height="340.000000pt" viewBox="0 0 968.000000 340.000000"
 preserveAspectRatio="xMidYMid meet">

<g transform="translate(0.000000,340.000000) scale(0.100000,-0.100000)"
fill="#000000" stroke="none">
<path d="M1337 2630 c-359 -61 -657 -329 -763 -687 -37 -126 -44 -319 -16
-455 47 -228 175 -433 354 -569 256 -193 576 -248 883 -152 314 99 560 366
642 699 23 96 24 334 0 426 -49 195 -140 352 -285 489 -134 127 -280 204 -455
240 -97 20 -269 24 -360 9z m386 -458 c129 -60 228 -184 258 -321 18 -86 7
-256 -20 -318 -45 -102 -147 -158 -241 -133 -35 10 -90 59 -90 81 0 17 -17 9
-29 -15 -33 -61 -153 -86 -229 -47 -86 44 -126 125 -126 253 1 73 5 94 27 140
32 63 80 102 146 118 60 14 122 0 157 -35 l24 -24 0 24 c0 23 3 25 53 25 l54
0 6 -127 c4 -71 7 -155 7 -188 0 -72 18 -105 59 -105 102 0 132 259 50 428
-58 119 -165 178 -324 176 -124 -1 -188 -27 -271 -108 -91 -90 -109 -142 -109
-316 0 -173 18 -225 109 -316 84 -84 145 -107 286 -108 58 -1 124 3 148 7 l42
9 0 -51 c0 -49 -1 -50 -37 -60 -58 -16 -236 -13 -306 5 -175 45 -307 176 -352
349 -25 96 -20 257 10 354 51 160 175 281 336 326 38 10 90 14 174 12 111 -3
125 -5 188 -35z"/>
<path d="M1431 1837 c-39 -19 -63 -71 -69 -145 -9 -131 31 -202 113 -202 58 0
97 35 115 101 15 53 7 147 -16 195 -27 56 -90 79 -143 51z"/>
<path d="M3576 2624 c-245 -48 -471 -195 -605 -393 -57 -84 -117 -212 -143
-308 -32 -117 -32 -364 0 -483 73 -271 259 -499 507 -620 132 -65 231 -90 380
-97 349 -16 660 145 853 440 91 139 139 293 149 472 29 550 -410 1008 -962
1004 -60 -1 -141 -7 -179 -15z m107 -432 c-4 -83 -2 -105 16 -152 11 -30 21
-58 21 -61 0 -11 -99 7 -116 22 -47 39 -71 179 -41 239 12 25 52 44 100 48
l25 2 -5 -98z m179 51 c65 -29 73 -42 106 -188 36 -154 45 -258 39 -430 -7
-164 -20 -254 -59 -384 -17 -59 -28 -77 -52 -92 -39 -25 -165 -63 -174 -54 -4
4 -7 48 -7 98 0 108 26 207 55 207 60 0 90 94 90 285 0 188 -28 285 -82 285
-13 0 -27 17 -46 58 -22 47 -27 71 -27 137 0 110 5 119 58 111 23 -4 67 -18
99 -33z m-137 -860 c-37 -87 -50 -199 -32 -265 7 -27 6 -28 -27 -28 -83 0
-111 40 -104 148 6 108 49 159 137 161 28 1 32 -2 26 -16z"/>
<path d="M5817 2630 c-395 -71 -704 -371 -782 -759 -24 -116 -16 -344 15 -451
51 -178 172 -363 312 -479 89 -74 264 -164 373 -192 115 -29 296 -36 408 -15
425 80 732 406 787 836 23 175 -8 354 -89 525 -124 259 -343 440 -626 517 -80
22 -318 33 -398 18z m835 -548 c10 -10 13 -101 13 -430 0 -229 -3 -425 -7
-435 -7 -16 -46 -17 -680 -15 l-673 3 -3 424 c-2 460 -3 453 52 464 11 3 305
4 653 3 504 -1 635 -4 645 -14z"/>
<path d="M5471 2007 c15 -12 138 -123 273 -247 136 -124 250 -226 255 -228 7
-2 411 358 526 469 l30 29 -555 0 -555 -1 26 -22z"/>
<path d="M5360 1661 c0 -315 2 -361 14 -348 8 8 98 89 199 181 l185 167 -176
161 c-98 89 -187 171 -199 182 l-23 19 0 -362z"/>
<path d="M6412 1814 c-100 -92 -181 -170 -180 -174 2 -5 84 -81 183 -170 l180
-161 3 171 c1 94 1 245 0 336 l-3 165 -183 -167z"/>
<path d="M5608 1442 l-197 -177 284 -3 c157 -1 413 -1 570 0 l285 3 -186 168
-185 168 -84 -75 c-45 -42 -88 -76 -94 -76 -5 0 -41 28 -78 62 -37 34 -79 72
-93 85 l-25 22 -197 -177z"/>
<path d="M8077 2630 c-154 -28 -334 -111 -455 -211 -141 -117 -250 -284 -308
-474 -26 -84 -28 -102 -28 -265 0 -163 2 -181 28 -264 51 -166 126 -295 241
-411 265 -269 658 -355 1019 -224 160 58 325 181 433 323 63 83 138 243 164
351 30 120 32 314 5 430 -82 357 -349 635 -696 726 -94 24 -316 35 -403 19z
m336 -427 c89 -42 168 -121 210 -210 30 -64 32 -75 32 -178 0 -102 -2 -115
-31 -175 -17 -36 -58 -95 -91 -131 -113 -124 -180 -248 -229 -420 -41 -145
-69 -157 -98 -43 -44 173 -120 318 -241 459 -43 50 -92 119 -109 155 -29 60
-31 73 -31 170 0 98 2 109 33 172 54 110 140 186 257 225 25 8 76 12 135 10
83 -2 104 -7 163 -34z"/>
<path d="M8133 2166 c-104 -34 -176 -98 -222 -196 -21 -45 -26 -70 -26 -140 0
-74 4 -93 31 -150 17 -36 58 -95 91 -132 102 -112 173 -227 218 -355 l22 -63
23 63 c49 134 116 245 215 357 86 95 110 154 110 265 0 82 -3 97 -32 156 -62
125 -175 200 -313 206 -45 2 -92 -3 -117 -11z m193 -212 c44 -21 84 -88 84
-139 0 -113 -129 -190 -230 -136 -105 55 -109 209 -8 271 40 24 107 26 154 4z"/>
</g>
</svg>
