<svg xmlns="http://www.w3.org/2000/svg" xmlns:xlink="http://www.w3.org/1999/xlink" width="500" zoomAndPan="magnify" viewBox="0 0 375 374.999991" height="500" preserveAspectRatio="xMidYMid meet" version="1.0"><defs><g/><clipPath id="51039642af"><path d="M 62.402344 62.402344 L 312.597656 62.402344 L 312.597656 312.597656 L 62.402344 312.597656 Z M 62.402344 62.402344 " clip-rule="nonzero"/></clipPath><clipPath id="fe17d2950e"><path d="M 187.5 62.402344 C 118.410156 62.402344 62.402344 118.410156 62.402344 187.5 C 62.402344 256.589844 118.410156 312.597656 187.5 312.597656 C 256.589844 312.597656 312.597656 256.589844 312.597656 187.5 C 312.597656 118.410156 256.589844 62.402344 187.5 62.402344 " clip-rule="nonzero"/></clipPath><clipPath id="847b43b792"><path d="M 108 141 L 141 141 L 141 174 L 108 174 Z M 108 141 " clip-rule="nonzero"/></clipPath><clipPath id="33f46e4ef7"><path d="M 82.109375 146.925781 L 181.53125 132.234375 L 193.152344 210.878906 L 93.734375 225.570312 Z M 82.109375 146.925781 " clip-rule="nonzero"/></clipPath><clipPath id="955b920e1e"><path d="M 82.109375 146.925781 L 181.53125 132.234375 L 193.152344 210.878906 L 93.734375 225.570312 Z M 82.109375 146.925781 " clip-rule="nonzero"/></clipPath><clipPath id="c7ff7acdaf"><path d="M 82.109375 146.925781 L 181.53125 132.234375 L 193.152344 210.878906 L 93.734375 225.570312 Z M 82.109375 146.925781 " clip-rule="nonzero"/></clipPath><clipPath id="3b441e5203"><path d="M 109 142 L 141 142 L 141 173 L 109 173 Z M 109 142 " clip-rule="nonzero"/></clipPath><clipPath id="45d712cdb5"><path d="M 82.109375 146.925781 L 181.53125 132.234375 L 193.152344 210.878906 L 93.734375 225.570312 Z M 82.109375 146.925781 " clip-rule="nonzero"/></clipPath><clipPath id="32f6bb91c7"><path d="M 82.109375 146.925781 L 181.53125 132.234375 L 193.152344 210.878906 L 93.734375 225.570312 Z M 82.109375 146.925781 " clip-rule="nonzero"/></clipPath><clipPath id="49d02e7880"><path d="M 82.109375 146.925781 L 181.53125 132.234375 L 193.152344 210.878906 L 93.734375 225.570312 Z M 82.109375 146.925781 " clip-rule="nonzero"/></clipPath><clipPath id="242b3c60a8"><path d="M 145 139 L 164 139 L 164 158 L 145 158 Z M 145 139 " clip-rule="nonzero"/></clipPath><clipPath id="de480dd745"><path d="M 82.109375 146.925781 L 181.53125 132.234375 L 193.152344 210.878906 L 93.734375 225.570312 Z M 82.109375 146.925781 " clip-rule="nonzero"/></clipPath><clipPath id="9dc8b41314"><path d="M 82.109375 146.925781 L 181.53125 132.234375 L 193.152344 210.878906 L 93.734375 225.570312 Z M 82.109375 146.925781 " clip-rule="nonzero"/></clipPath><clipPath id="1fd1005440"><path d="M 82.109375 146.925781 L 181.53125 132.234375 L 193.152344 210.878906 L 93.734375 225.570312 Z M 82.109375 146.925781 " clip-rule="nonzero"/></clipPath><clipPath id="48e041ffd5"><path d="M 145 140 L 164 140 L 164 158 L 145 158 Z M 145 140 " clip-rule="nonzero"/></clipPath><clipPath id="21940fd230"><path d="M 82.109375 146.925781 L 181.53125 132.234375 L 193.152344 210.878906 L 93.734375 225.570312 Z M 82.109375 146.925781 " clip-rule="nonzero"/></clipPath><clipPath id="2e1d55eabb"><path d="M 82.109375 146.925781 L 181.53125 132.234375 L 193.152344 210.878906 L 93.734375 225.570312 Z M 82.109375 146.925781 " clip-rule="nonzero"/></clipPath><clipPath id="265e92d6f5"><path d="M 82.109375 146.925781 L 181.53125 132.234375 L 193.152344 210.878906 L 93.734375 225.570312 Z M 82.109375 146.925781 " clip-rule="nonzero"/></clipPath><clipPath id="e407bea68c"><path d="M 153 150 L 186 150 L 186 179 L 153 179 Z M 153 150 " clip-rule="nonzero"/></clipPath><clipPath id="b98930392e"><path d="M 82.109375 146.925781 L 181.53125 132.234375 L 193.152344 210.878906 L 93.734375 225.570312 Z M 82.109375 146.925781 " clip-rule="nonzero"/></clipPath><clipPath id="23aafabbe9"><path d="M 82.109375 146.925781 L 181.53125 132.234375 L 193.152344 210.878906 L 93.734375 225.570312 Z M 82.109375 146.925781 " clip-rule="nonzero"/></clipPath><clipPath id="51a609bf9d"><path d="M 82.109375 146.925781 L 181.53125 132.234375 L 193.152344 210.878906 L 93.734375 225.570312 Z M 82.109375 146.925781 " clip-rule="nonzero"/></clipPath><clipPath id="f8e6bfbd94"><path d="M 153 150 L 185 150 L 185 178 L 153 178 Z M 153 150 " clip-rule="nonzero"/></clipPath><clipPath id="31fefa5086"><path d="M 82.109375 146.925781 L 181.53125 132.234375 L 193.152344 210.878906 L 93.734375 225.570312 Z M 82.109375 146.925781 " clip-rule="nonzero"/></clipPath><clipPath id="304dc76c6f"><path d="M 82.109375 146.925781 L 181.53125 132.234375 L 193.152344 210.878906 L 93.734375 225.570312 Z M 82.109375 146.925781 " clip-rule="nonzero"/></clipPath><clipPath id="2bd1fc8c06"><path d="M 82.109375 146.925781 L 181.53125 132.234375 L 193.152344 210.878906 L 93.734375 225.570312 Z M 82.109375 146.925781 " clip-rule="nonzero"/></clipPath><clipPath id="d8f53c6849"><path d="M 93 174 L 151 174 L 151 226 L 93 226 Z M 93 174 " clip-rule="nonzero"/></clipPath><clipPath id="54997caf71"><path d="M 82.109375 146.925781 L 181.53125 132.234375 L 193.152344 210.878906 L 93.734375 225.570312 Z M 82.109375 146.925781 " clip-rule="nonzero"/></clipPath><clipPath id="c4e2abc36e"><path d="M 82.109375 146.925781 L 181.53125 132.234375 L 193.152344 210.878906 L 93.734375 225.570312 Z M 82.109375 146.925781 " clip-rule="nonzero"/></clipPath><clipPath id="5ce207bcef"><path d="M 82.109375 146.925781 L 181.53125 132.234375 L 193.152344 210.878906 L 93.734375 225.570312 Z M 82.109375 146.925781 " clip-rule="nonzero"/></clipPath><clipPath id="6a7892381a"><path d="M 93 174 L 150 174 L 150 226 L 93 226 Z M 93 174 " clip-rule="nonzero"/></clipPath><clipPath id="3107f2857f"><path d="M 82.109375 146.925781 L 181.53125 132.234375 L 193.152344 210.878906 L 93.734375 225.570312 Z M 82.109375 146.925781 " clip-rule="nonzero"/></clipPath><clipPath id="7e4b516024"><path d="M 82.109375 146.925781 L 181.53125 132.234375 L 193.152344 210.878906 L 93.734375 225.570312 Z M 82.109375 146.925781 " clip-rule="nonzero"/></clipPath><clipPath id="6a52a19eb9"><path d="M 82.109375 146.925781 L 181.53125 132.234375 L 193.152344 210.878906 L 93.734375 225.570312 Z M 82.109375 146.925781 " clip-rule="nonzero"/></clipPath></defs><g clip-path="url(#51039642af)"><g clip-path="url(#fe17d2950e)"><path fill="#000000" d="M 62.402344 62.402344 L 312.597656 62.402344 L 312.597656 312.597656 L 62.402344 312.597656 Z M 62.402344 62.402344 " fill-opacity="1" fill-rule="nonzero"/></g></g><g fill="#ffffff" fill-opacity="1"><g transform="translate(151.852144, 213.850006)"><g><path d="M 16.125 -29.578125 L 9.328125 0 L -0.171875 0 L 6.625 -29.578125 Z M 19.484375 -22.453125 L 21.109375 -29.578125 L 23.21875 -29.578125 C 25.050781 -29.578125 26.597656 -29.15625 27.859375 -28.3125 C 29.128906 -27.46875 29.984375 -26.304688 30.421875 -24.828125 C 30.867188 -23.359375 30.878906 -21.703125 30.453125 -19.859375 L 30.3125 -19.3125 C 29.6875 -16.5 28.273438 -14.164062 26.078125 -12.3125 C 23.890625 -10.46875 21.40625 -9.546875 18.625 -9.546875 L 16.515625 -9.546875 L 18.15625 -16.59375 C 19.5 -16.9375 20.34375 -17.851562 20.6875 -19.34375 L 20.765625 -19.6875 C 21.109375 -21.1875 20.679688 -22.109375 19.484375 -22.453125 Z M 19.484375 -22.453125 "/></g></g></g><g fill="#ffffff" fill-opacity="1"><g transform="translate(182.895374, 213.850006)"><g><path d="M 8.296875 -0.296875 C 5.367188 -1.210938 3.351562 -2.890625 2.25 -5.328125 C 1.15625 -7.765625 1.050781 -10.914062 1.9375 -14.78125 C 2.820312 -18.65625 4.378906 -21.8125 6.609375 -24.25 C 8.847656 -26.6875 11.644531 -28.363281 15 -29.28125 Z M 18.53125 -22.921875 L 20.171875 -30.09375 L 21.40625 -30.09375 C 26.507812 -30.09375 30.148438 -28.789062 32.328125 -26.1875 C 34.515625 -23.582031 35.03125 -19.785156 33.875 -14.796875 C 32.726562 -9.804688 30.460938 -6.003906 27.078125 -3.390625 C 23.703125 -0.785156 19.460938 0.515625 14.359375 0.515625 C 13.785156 0.515625 13.367188 0.5 13.109375 0.46875 L 14.75 -6.671875 C 15.257812 -6.609375 15.675781 -6.578125 16 -6.578125 C 18.03125 -6.578125 19.726562 -7.191406 21.09375 -8.421875 C 22.457031 -9.660156 23.378906 -11.328125 23.859375 -13.421875 L 24.46875 -16.171875 C 24.957031 -18.265625 24.804688 -19.925781 24.015625 -21.15625 C 23.222656 -22.382812 21.8125 -23 19.78125 -23 C 19.46875 -23 19.050781 -22.972656 18.53125 -22.921875 Z M 18.53125 -22.921875 "/></g></g></g><g fill="#ffffff" fill-opacity="1"><g transform="translate(218.711179, 213.850006)"><g><path d="M 21.625 -18.171875 C 22.257812 -18.703125 22.671875 -19.351562 22.859375 -20.125 C 23.046875 -20.894531 22.9375 -21.535156 22.53125 -22.046875 C 22.132812 -22.566406 21.5625 -22.828125 20.8125 -22.828125 L 18.109375 -22.828125 L 19.65625 -29.578125 L 24.734375 -29.578125 C 27.878906 -29.578125 30.125 -28.703125 31.46875 -26.953125 C 32.820312 -25.210938 33.210938 -23.066406 32.640625 -20.515625 C 32.210938 -18.703125 31.335938 -17.066406 30.015625 -15.609375 C 28.703125 -14.148438 27.039062 -13.078125 25.03125 -12.390625 L 28.765625 0 L 18.109375 0 L 15.359375 -10.796875 L 16.859375 -17.375 L 19.5625 -17.375 C 20.3125 -17.375 21 -17.640625 21.625 -18.171875 Z M 7.875 0 L -0.171875 0 L 6.625 -29.578125 L 14.671875 -29.578125 Z M 7.875 0 "/></g></g></g><g fill="#ffffff" fill-opacity="1"><g transform="translate(252.1622, 213.850006)"><g><path d="M 33.28125 -29.578125 L 31.5625 -22.015625 L 26.875 -22.015625 L 28.59375 -29.578125 Z M 21.890625 -22.015625 L 16.8125 0 L 7.3125 0 L 12.390625 -22.015625 L 2.671875 -22.015625 L 4.390625 -29.578125 L 23.609375 -29.578125 Z M 21.890625 -22.015625 "/></g></g></g><g clip-path="url(#847b43b792)"><g clip-path="url(#33f46e4ef7)"><g clip-path="url(#955b920e1e)"><g clip-path="url(#c7ff7acdaf)"><path stroke-linecap="butt" transform="matrix(0.383565, -0.0566894, 0.0567018, 0.383649, 71.883619, 130.246398)" fill="none" stroke-linejoin="miter" d="M 108.423771 50.730204 C 118.533663 46.685159 129.723324 49.458588 139.291638 53.692808 C 149.966063 58.711563 160.873073 66.014872 165.248712 77.474547 C 167.216548 82.143513 165.930619 87.604421 162.54755 91.268898 C 159.890769 93.533783 156.113861 92.90442 152.932428 92.587047 C 145.707752 91.030773 141.280696 84.603511 135.670313 80.394129 C 130.804023 76.111424 125.623132 71.476777 119.036399 70.289677 C 113.161007 69.319689 108.054291 73.20802 104.280466 77.242396 C 98.613041 84.234791 95.038931 92.63614 92.246617 101.122466 C 90.429843 108.520938 86.564418 115.586148 87.029597 123.393083 C 86.484532 116.195436 84.425457 109.181347 84.232504 101.944093 C 83.861656 92.603457 85.045467 83.217633 87.387287 74.196377 C 91.689941 64.517949 98.328704 54.950532 108.423771 50.730204 Z M 108.423771 50.730204 " stroke="#000000" stroke-width="0.1" stroke-opacity="1" stroke-miterlimit="10"/></g></g></g></g><g clip-path="url(#3b441e5203)"><g clip-path="url(#45d712cdb5)"><g clip-path="url(#32f6bb91c7)"><g clip-path="url(#49d02e7880)"><path fill="#ffffff" d="M 116.347656 143.5625 C 119.996094 141.4375 124.445312 141.867188 128.355469 142.949219 C 132.734375 144.269531 137.332031 146.453125 139.660156 150.601562 C 140.679688 152.28125 140.496094 154.449219 139.40625 156.046875 C 138.515625 157.066406 137.03125 157.039062 135.792969 157.097656 C 132.933594 156.910156 130.871094 154.695312 128.480469 153.398438 C 126.371094 152.03125 124.121094 150.546875 121.527344 150.464844 C 119.21875 150.425781 117.480469 152.207031 116.261719 153.96875 C 114.484375 156.972656 113.589844 160.398438 113 163.8125 C 112.722656 166.753906 111.640625 169.683594 112.261719 172.652344 C 111.644531 169.921875 110.457031 167.347656 109.972656 164.582031 C 109.300781 161.019531 109.222656 157.351562 109.609375 153.757812 C 110.710938 149.800781 112.714844 145.753906 116.347656 143.5625 Z M 116.347656 143.5625 " fill-opacity="1" fill-rule="nonzero"/></g></g></g></g><g clip-path="url(#242b3c60a8)"><g clip-path="url(#de480dd745)"><g clip-path="url(#9dc8b41314)"><g clip-path="url(#1fd1005440)"><path stroke-linecap="butt" transform="matrix(0.383565, -0.0566894, 0.0567018, 0.383649, 71.883619, 130.246398)" fill="none" stroke-linejoin="miter" d="M 200.642938 56.913931 C 207.969026 56.061911 215.670304 58.940976 220.579097 64.451782 C 223.914642 68.549026 226.153576 73.726416 226.117767 79.06659 C 225.4737 85.559071 222.202682 91.979021 216.75338 95.70473 C 210.325496 100.263297 201.538521 101.215087 194.305912 98.059092 C 183.554297 93.975843 177.29946 80.141031 182.826909 69.686491 C 185.934546 62.58058 193.095083 57.957181 200.642938 56.913931 Z M 200.642938 56.913931 " stroke="#000000" stroke-width="0.1" stroke-opacity="1" stroke-miterlimit="10"/></g></g></g></g><g clip-path="url(#48e041ffd5)"><g clip-path="url(#21940fd230)"><g clip-path="url(#2e1d55eabb)"><g clip-path="url(#265e92d6f5)"><path fill="#ffffff" d="M 152.070312 140.707031 C 154.832031 139.964844 157.949219 140.632812 160.144531 142.46875 C 161.65625 143.851562 162.808594 145.710938 163.097656 147.761719 C 163.21875 150.289062 162.328125 152.9375 160.449219 154.675781 C 158.242188 156.789062 154.925781 157.652344 151.972656 156.851562 C 147.617188 155.894531 144.433594 150.941406 145.960938 146.617188 C 146.75 143.714844 149.234375 141.535156 152.070312 140.707031 Z M 152.070312 140.707031 " fill-opacity="1" fill-rule="nonzero"/></g></g></g></g><g clip-path="url(#e407bea68c)"><g clip-path="url(#b98930392e)"><g clip-path="url(#23aafabbe9)"><g clip-path="url(#51a609bf9d)"><path stroke-linecap="butt" transform="matrix(0.383565, -0.0566894, 0.0567018, 0.383649, 71.883619, 130.246398)" fill="none" stroke-linejoin="miter" d="M 276.88147 94.662189 C 277.313315 94.634363 277.752179 94.627939 278.199537 94.632951 C 278.01705 98.485267 279.015702 102.339021 278.377363 106.174888 C 277.362379 112.765288 274.705106 118.96029 271.825187 124.93912 C 265.515013 139.035101 253.558888 150.677902 239.072263 156.15332 C 232.421415 158.500027 224.524703 158.320818 218.527199 154.318961 C 208.840788 147.990196 201.215055 138.331007 197.88225 127.188334 C 195.767046 121.173953 195.695163 113.944407 199.321964 108.493395 C 201.141571 106.104807 203.593728 103.432958 206.86702 103.611177 C 210.252199 103.928111 213.281414 105.964086 215.334554 108.609289 C 220.143967 114.93014 221.157047 123.164217 225.129474 129.911211 C 228.448127 134.260505 233.82446 139.433123 239.76102 136.889234 C 246.919524 133.864083 252.935651 128.715218 258.763202 123.670851 C 266.114349 117.344705 271.243117 108.898168 275.33018 100.195886 C 276.147887 98.453437 276.718253 96.592985 276.88147 94.662189 Z M 276.88147 94.662189 " stroke="#000000" stroke-width="0.1" stroke-opacity="1" stroke-miterlimit="10"/></g></g></g></g><g clip-path="url(#f8e6bfbd94)"><g clip-path="url(#31fefa5086)"><g clip-path="url(#304dc76c6f)"><g clip-path="url(#2bd1fc8c06)"><path fill="#ffffff" d="M 183.453125 150.867188 C 183.617188 150.832031 183.785156 150.804688 183.957031 150.78125 C 184.105469 152.269531 184.707031 153.691406 184.679688 155.199219 C 184.664062 157.785156 183.996094 160.3125 183.230469 162.769531 C 181.609375 168.535156 177.683594 173.679688 172.4375 176.601562 C 170.019531 177.878906 166.980469 178.257812 164.453125 177.0625 C 160.378906 175.183594 156.90625 171.910156 154.996094 167.824219 C 153.84375 165.636719 153.40625 162.867188 154.488281 160.570312 C 155.050781 159.550781 155.839844 158.386719 157.105469 158.269531 C 158.421875 158.199219 159.699219 158.808594 160.636719 159.707031 C 162.839844 161.859375 163.695312 164.960938 165.601562 167.324219 C 167.121094 168.804688 169.476562 170.484375 171.609375 169.171875 C 174.183594 167.605469 176.199219 165.289062 178.148438 163.023438 C 180.609375 160.179688 182.097656 156.648438 183.171875 153.078125 C 183.386719 152.363281 183.5 151.617188 183.453125 150.867188 Z M 183.453125 150.867188 " fill-opacity="1" fill-rule="nonzero"/></g></g></g></g><g clip-path="url(#d8f53c6849)"><g clip-path="url(#54997caf71)"><g clip-path="url(#c4e2abc36e)"><g clip-path="url(#5ce207bcef)"><path stroke-linecap="butt" transform="matrix(0.383565, -0.0566894, 0.0567018, 0.383649, 71.883619, 130.246398)" fill="none" stroke-linejoin="miter" d="M 98.080599 135.09586 C 102.341053 131.489756 108.624092 131.837796 113.572207 133.638042 C 118.554391 135.758958 123.792564 137.388245 128.327329 140.400142 C 135.379544 144.914211 142.115627 149.982296 148.149929 155.801958 C 154.963675 161.309156 161.287097 167.446449 166.703519 174.345722 C 170.702925 179.050153 174.880882 184.544605 174.570124 191.055791 C 171.607632 200.555518 163.47419 207.48898 155.015519 212.144562 C 143.784855 217.846547 131.269994 220.110767 119.274892 223.612519 C 114.087687 225.28968 108.640633 225.900078 103.239337 226.476511 C 97.131118 226.80594 90.997013 228.068273 84.882773 226.991719 C 88.796161 224.148878 93.535413 222.884072 97.839936 220.771028 C 110.1858 215.447648 121.808064 208.612252 133.835159 202.620677 C 138.925017 200.155312 143.921259 197.014294 146.833617 191.987169 C 146.680797 190.885313 146.527976 189.783456 146.385122 188.683073 C 142.956779 185.213572 138.730032 182.735917 134.366108 180.635084 C 129.283494 184.842614 123.423564 188.039283 118.737537 192.733051 C 105.886722 202.298918 91.67098 209.799822 77.981484 218.081033 C 59.555964 228.431891 42.127995 240.508336 23.343497 250.256331 C 22.247386 250.644185 21.133161 250.947908 19.980887 251.164553 C 27.191247 243.310691 35.592747 236.630657 42.688274 228.658009 C 52.940185 217.934298 63.185075 207.189186 73.87231 196.896347 C 85.163574 186.030942 96.137293 174.833523 106.600375 163.163559 C 102.183355 159.079604 96.485281 155.325629 95.149177 149.070006 C 93.872656 144.340282 94.617799 138.748557 98.080599 135.09586 Z M 98.080599 135.09586 " stroke="#000000" stroke-width="0.1" stroke-opacity="1" stroke-miterlimit="10"/></g></g></g></g><g clip-path="url(#6a7892381a)"><g clip-path="url(#3107f2857f)"><g clip-path="url(#7e4b516024)"><g clip-path="url(#6a52a19eb9)"><path fill="#ffffff" d="M 117.164062 176.515625 C 118.59375 174.890625 121.023438 174.667969 123.023438 175.078125 C 125.054688 175.609375 127.15625 175.9375 129.066406 176.835938 C 132.027344 178.167969 134.898438 179.730469 137.542969 181.621094 C 140.46875 183.347656 143.242188 185.34375 145.710938 187.683594 C 147.511719 189.261719 149.425781 191.132812 149.675781 193.648438 C 149.078125 197.460938 146.351562 200.582031 143.371094 202.847656 C 139.386719 205.671875 134.714844 207.25 130.3125 209.273438 C 128.417969 210.210938 126.363281 210.753906 124.324219 211.28125 C 122 211.753906 119.71875 212.585938 117.3125 212.519531 C 118.652344 211.207031 120.398438 210.453125 121.929688 209.398438 C 126.363281 206.65625 130.433594 203.375 134.707031 200.394531 C 136.519531 199.160156 138.257812 197.671875 139.089844 195.578125 C 138.96875 195.164062 138.847656 194.75 138.730469 194.335938 C 137.21875 193.199219 135.457031 192.488281 133.664062 191.929688 C 131.953125 193.832031 129.886719 195.390625 128.355469 197.457031 C 123.96875 201.855469 118.941406 205.539062 114.160156 209.492188 C 107.679688 214.507812 101.679688 220.128906 95.027344 224.933594 C 94.628906 225.144531 94.21875 225.324219 93.789062 225.472656 C 96.109375 222.050781 98.953125 219.011719 101.222656 215.550781 C 104.546875 210.855469 107.867188 206.152344 111.382812 201.597656 C 115.097656 196.789062 118.671875 191.871094 122.023438 186.800781 C 120.097656 185.484375 117.699219 184.367188 116.832031 182.042969 C 116.074219 180.300781 116.042969 178.113281 117.164062 176.515625 Z M 117.164062 176.515625 " fill-opacity="1" fill-rule="nonzero"/></g></g></g></g><g fill="#ffffff" fill-opacity="1"><g transform="translate(149.602144, 225.299985)"><g><path d="M 5.015625 -1.5 C 5.015625 -0.375 4.335938 0.1875 2.984375 0.1875 C 1.628906 0.1875 0.953125 -0.375 0.953125 -1.5 L 0.953125 -2.515625 L 1.796875 -2.515625 L 1.796875 -1.453125 C 1.796875 -1.160156 1.894531 -0.9375 2.09375 -0.78125 C 2.300781 -0.625 2.597656 -0.546875 2.984375 -0.546875 C 3.378906 -0.546875 3.675781 -0.625 3.875 -0.78125 C 4.070312 -0.9375 4.171875 -1.148438 4.171875 -1.421875 C 4.171875 -1.703125 4.140625 -1.925781 4.078125 -2.09375 C 4.023438 -2.257812 3.90625 -2.429688 3.71875 -2.609375 L 1.609375 -4.6875 C 1.359375 -4.925781 1.1875 -5.164062 1.09375 -5.40625 C 1 -5.644531 0.953125 -5.941406 0.953125 -6.296875 C 0.953125 -6.835938 1.117188 -7.253906 1.453125 -7.546875 C 1.785156 -7.835938 2.289062 -7.984375 2.96875 -7.984375 C 4.25 -7.984375 4.890625 -7.421875 4.890625 -6.296875 L 4.890625 -5.28125 L 4.0625 -5.28125 L 4.0625 -6.34375 C 4.0625 -6.632812 3.960938 -6.859375 3.765625 -7.015625 C 3.578125 -7.179688 3.296875 -7.265625 2.921875 -7.265625 C 2.546875 -7.265625 2.265625 -7.179688 2.078125 -7.015625 C 1.890625 -6.859375 1.796875 -6.640625 1.796875 -6.359375 C 1.796875 -6.078125 1.820312 -5.851562 1.875 -5.6875 C 1.9375 -5.53125 2.0625 -5.367188 2.25 -5.203125 L 4.40625 -3.125 C 4.632812 -2.875 4.789062 -2.628906 4.875 -2.390625 C 4.96875 -2.160156 5.015625 -1.863281 5.015625 -1.5 Z M 5.015625 -1.5 "/></g></g></g><g fill="#ffffff" fill-opacity="1"><g transform="translate(157.618169, 225.299985)"><g><path d="M 1.921875 0 L 1.078125 0 L 1.078125 -7.796875 L 2.890625 -7.796875 C 3.515625 -7.796875 3.988281 -7.644531 4.3125 -7.34375 C 4.632812 -7.050781 4.796875 -6.644531 4.796875 -6.125 L 4.796875 -4.078125 C 4.796875 -3.546875 4.632812 -3.132812 4.3125 -2.84375 C 4 -2.550781 3.523438 -2.40625 2.890625 -2.40625 L 1.921875 -2.40625 Z M 3.953125 -4.078125 L 3.953125 -6.125 C 3.953125 -6.425781 3.859375 -6.660156 3.671875 -6.828125 C 3.492188 -6.992188 3.234375 -7.078125 2.890625 -7.078125 L 1.921875 -7.078125 L 1.921875 -3.125 L 2.890625 -3.125 C 3.597656 -3.125 3.953125 -3.441406 3.953125 -4.078125 Z M 3.953125 -4.078125 "/></g></g></g><g fill="#ffffff" fill-opacity="1"><g transform="translate(165.178193, 225.299985)"><g><path d="M 5.09375 -6.296875 L 5.09375 -1.5 C 5.09375 -0.96875 4.921875 -0.550781 4.578125 -0.25 C 4.242188 0.0390625 3.738281 0.1875 3.0625 0.1875 C 2.382812 0.1875 1.875 0.0390625 1.53125 -0.25 C 1.1875 -0.550781 1.015625 -0.96875 1.015625 -1.5 L 1.015625 -6.296875 C 1.015625 -6.835938 1.1875 -7.253906 1.53125 -7.546875 C 1.875 -7.835938 2.378906 -7.984375 3.046875 -7.984375 C 3.722656 -7.984375 4.234375 -7.835938 4.578125 -7.546875 C 4.921875 -7.253906 5.09375 -6.835938 5.09375 -6.296875 Z M 4.265625 -1.5 L 4.265625 -6.296875 C 4.265625 -6.941406 3.863281 -7.265625 3.0625 -7.265625 C 2.257812 -7.265625 1.859375 -6.941406 1.859375 -6.296875 L 1.859375 -1.5 C 1.859375 -0.863281 2.257812 -0.546875 3.0625 -0.546875 C 3.863281 -0.546875 4.265625 -0.863281 4.265625 -1.5 Z M 4.265625 -1.5 "/></g></g></g><g fill="#ffffff" fill-opacity="1"><g transform="translate(173.338219, 225.299985)"><g><path d="M 2.046875 0 L 1.203125 0 L 1.203125 -7.796875 L 1.5625 -7.796875 L 1.90625 -6.90625 C 2.164062 -7.625 2.570312 -7.984375 3.125 -7.984375 C 4.082031 -7.984375 4.5625 -7.460938 4.5625 -6.421875 L 4.5625 -5.640625 L 3.75 -5.640625 L 3.75 -6.46875 C 3.75 -7 3.53125 -7.265625 3.09375 -7.265625 C 2.832031 -7.265625 2.59375 -7.109375 2.375 -6.796875 C 2.15625 -6.492188 2.046875 -6.054688 2.046875 -5.484375 Z M 2.046875 0 "/></g></g></g><g fill="#ffffff" fill-opacity="1"><g transform="translate(180.178238, 225.299985)"><g><path d="M 1.015625 -7.796875 L 3.65625 -7.796875 L 3.65625 -7.078125 L 1.859375 -7.078125 L 1.859375 -1.328125 C 1.859375 -1.109375 1.914062 -0.921875 2.03125 -0.765625 C 2.144531 -0.617188 2.304688 -0.546875 2.515625 -0.546875 C 2.734375 -0.546875 2.898438 -0.617188 3.015625 -0.765625 C 3.128906 -0.910156 3.1875 -1.097656 3.1875 -1.328125 L 3.1875 -2.765625 L 4.015625 -2.765625 L 4.015625 -1.375 C 4.015625 -0.875 3.878906 -0.488281 3.609375 -0.21875 C 3.347656 0.0507812 2.988281 0.1875 2.53125 0.1875 C 2.070312 0.1875 1.703125 0.0507812 1.421875 -0.21875 C 1.148438 -0.488281 1.015625 -0.875 1.015625 -1.375 Z M 1.015625 -7.796875 "/></g></g></g><g fill="#ffffff" fill-opacity="1"><g transform="translate(186.718261, 225.299985)"><g/></g></g><g fill="#ffffff" fill-opacity="1"><g transform="translate(191.518279, 225.299985)"><g><path d="M 2.046875 0 L 1.203125 0 L 1.203125 -7.796875 L 4.5 -7.796875 L 4.5 -7.078125 L 2.046875 -7.078125 L 2.046875 -4.3125 L 4.015625 -4.3125 L 4.015625 -3.59375 L 2.046875 -3.59375 Z M 2.046875 0 "/></g></g></g><g fill="#ffffff" fill-opacity="1"><g transform="translate(198.538302, 225.299985)"><g><path d="M 2.046875 0 L 1.203125 0 L 1.203125 -7.796875 L 2.046875 -7.796875 Z M 2.046875 0 "/></g></g></g><g fill="#ffffff" fill-opacity="1"><g transform="translate(203.81832, 225.299985)"><g><path d="M 4.140625 -1.5 L 4.140625 -2.15625 L 4.984375 -2.15625 L 4.984375 -1.5 C 4.984375 -0.96875 4.816406 -0.550781 4.484375 -0.25 C 4.160156 0.0390625 3.671875 0.1875 3.015625 0.1875 C 2.359375 0.1875 1.859375 0.0390625 1.515625 -0.25 C 1.179688 -0.550781 1.015625 -0.96875 1.015625 -1.5 L 1.015625 -6.296875 C 1.015625 -6.835938 1.175781 -7.253906 1.5 -7.546875 C 1.832031 -7.835938 2.328125 -7.984375 2.984375 -7.984375 C 3.640625 -7.984375 4.132812 -7.835938 4.46875 -7.546875 C 4.8125 -7.253906 4.984375 -6.835938 4.984375 -6.296875 L 4.984375 -3.65625 L 1.859375 -3.65625 L 1.859375 -1.5 C 1.859375 -0.863281 2.238281 -0.546875 3 -0.546875 C 3.757812 -0.546875 4.140625 -0.863281 4.140625 -1.5 Z M 1.859375 -6.296875 L 1.859375 -4.375 L 4.140625 -4.375 L 4.140625 -6.296875 C 4.140625 -6.941406 3.757812 -7.265625 3 -7.265625 C 2.238281 -7.265625 1.859375 -6.941406 1.859375 -6.296875 Z M 1.859375 -6.296875 "/></g></g></g><g fill="#ffffff" fill-opacity="1"><g transform="translate(211.858343, 225.299985)"><g><path d="M 1.203125 0 L 1.203125 -7.796875 L 2.046875 -7.796875 L 2.046875 -0.71875 L 4.234375 -0.71875 L 4.234375 0 Z M 1.203125 0 "/></g></g></g><g fill="#ffffff" fill-opacity="1"><g transform="translate(218.374368, 225.299985)"><g><path d="M 3.125 0 L 1.203125 0 L 1.203125 -7.796875 L 3.125 -7.796875 C 3.75 -7.796875 4.222656 -7.644531 4.546875 -7.34375 C 4.878906 -7.050781 5.046875 -6.644531 5.046875 -6.125 L 5.046875 -1.6875 C 5.046875 -1.144531 4.882812 -0.726562 4.5625 -0.4375 C 4.238281 -0.144531 3.757812 0 3.125 0 Z M 4.203125 -1.6875 L 4.203125 -6.125 C 4.203125 -6.425781 4.109375 -6.660156 3.921875 -6.828125 C 3.734375 -6.992188 3.46875 -7.078125 3.125 -7.078125 L 2.046875 -7.078125 L 2.046875 -0.71875 L 3.125 -0.71875 C 3.84375 -0.71875 4.203125 -1.039062 4.203125 -1.6875 Z M 4.203125 -1.6875 "/></g></g></g><g fill="#ffffff" fill-opacity="1"><g transform="translate(226.474393, 225.299985)"><g/></g></g><g fill="#ffffff" fill-opacity="1"><g transform="translate(231.274411, 225.299985)"><g><path d="M 1.203125 -7.796875 L 3.015625 -7.796875 C 3.640625 -7.796875 4.113281 -7.644531 4.4375 -7.34375 C 4.757812 -7.050781 4.921875 -6.644531 4.921875 -6.125 L 4.921875 -5.40625 C 4.921875 -4.71875 4.632812 -4.28125 4.0625 -4.09375 C 4.71875 -3.914062 5.046875 -3.472656 5.046875 -2.765625 L 5.046875 -1.6875 C 5.046875 -1.144531 4.882812 -0.726562 4.5625 -0.4375 C 4.238281 -0.144531 3.757812 0 3.125 0 L 1.203125 0 Z M 4.203125 -1.6875 L 4.203125 -2.765625 C 4.203125 -3.066406 4.109375 -3.3125 3.921875 -3.5 C 3.734375 -3.6875 3.46875 -3.78125 3.125 -3.78125 L 2.046875 -3.78125 L 2.046875 -0.71875 L 3.125 -0.71875 C 3.84375 -0.71875 4.203125 -1.039062 4.203125 -1.6875 Z M 4.078125 -5.40625 L 4.078125 -6.125 C 4.078125 -6.425781 3.984375 -6.660156 3.796875 -6.828125 C 3.617188 -6.992188 3.359375 -7.078125 3.015625 -7.078125 L 2.046875 -7.078125 L 2.046875 -4.375 L 3.015625 -4.375 C 3.367188 -4.375 3.632812 -4.46875 3.8125 -4.65625 C 3.988281 -4.84375 4.078125 -5.09375 4.078125 -5.40625 Z M 4.078125 -5.40625 "/></g></g></g><g fill="#ffffff" fill-opacity="1"><g transform="translate(239.374435, 225.299985)"><g><path d="M 5.09375 -6.296875 L 5.09375 -1.5 C 5.09375 -0.96875 4.921875 -0.550781 4.578125 -0.25 C 4.242188 0.0390625 3.738281 0.1875 3.0625 0.1875 C 2.382812 0.1875 1.875 0.0390625 1.53125 -0.25 C 1.1875 -0.550781 1.015625 -0.96875 1.015625 -1.5 L 1.015625 -6.296875 C 1.015625 -6.835938 1.1875 -7.253906 1.53125 -7.546875 C 1.875 -7.835938 2.378906 -7.984375 3.046875 -7.984375 C 3.722656 -7.984375 4.234375 -7.835938 4.578125 -7.546875 C 4.921875 -7.253906 5.09375 -6.835938 5.09375 -6.296875 Z M 4.265625 -1.5 L 4.265625 -6.296875 C 4.265625 -6.941406 3.863281 -7.265625 3.0625 -7.265625 C 2.257812 -7.265625 1.859375 -6.941406 1.859375 -6.296875 L 1.859375 -1.5 C 1.859375 -0.863281 2.257812 -0.546875 3.0625 -0.546875 C 3.863281 -0.546875 4.265625 -0.863281 4.265625 -1.5 Z M 4.265625 -1.5 "/></g></g></g><g fill="#ffffff" fill-opacity="1"><g transform="translate(247.534461, 225.299985)"><g><path d="M 5.09375 -6.296875 L 5.09375 -1.5 C 5.09375 -0.96875 4.921875 -0.550781 4.578125 -0.25 C 4.242188 0.0390625 3.738281 0.1875 3.0625 0.1875 C 2.382812 0.1875 1.875 0.0390625 1.53125 -0.25 C 1.1875 -0.550781 1.015625 -0.96875 1.015625 -1.5 L 1.015625 -6.296875 C 1.015625 -6.835938 1.1875 -7.253906 1.53125 -7.546875 C 1.875 -7.835938 2.378906 -7.984375 3.046875 -7.984375 C 3.722656 -7.984375 4.234375 -7.835938 4.578125 -7.546875 C 4.921875 -7.253906 5.09375 -6.835938 5.09375 -6.296875 Z M 4.265625 -1.5 L 4.265625 -6.296875 C 4.265625 -6.941406 3.863281 -7.265625 3.0625 -7.265625 C 2.257812 -7.265625 1.859375 -6.941406 1.859375 -6.296875 L 1.859375 -1.5 C 1.859375 -0.863281 2.257812 -0.546875 3.0625 -0.546875 C 3.863281 -0.546875 4.265625 -0.863281 4.265625 -1.5 Z M 4.265625 -1.5 "/></g></g></g><g fill="#ffffff" fill-opacity="1"><g transform="translate(255.694487, 225.299985)"><g><path d="M 2.046875 0 L 1.21875 0 L 1.21875 -7.796875 L 2.046875 -7.796875 L 2.046875 -4.484375 L 4.140625 -7.796875 L 5.078125 -7.796875 L 2.953125 -4.4375 L 5.21875 0 L 4.296875 0 L 2.453125 -3.640625 L 2.046875 -3 Z M 2.046875 0 "/></g></g></g><g fill="#ffffff" fill-opacity="1"><g transform="translate(263.19451, 225.299985)"><g><path d="M 2.046875 0 L 1.203125 0 L 1.203125 -7.796875 L 2.046875 -7.796875 Z M 2.046875 0 "/></g></g></g><g fill="#ffffff" fill-opacity="1"><g transform="translate(268.474527, 225.299985)"><g><path d="M 2.046875 0 L 1.203125 0 L 1.203125 -7.796875 L 1.5625 -7.796875 L 1.859375 -7.015625 C 2.242188 -7.660156 2.773438 -7.984375 3.453125 -7.984375 C 4.628906 -7.984375 5.21875 -7.421875 5.21875 -6.296875 L 5.21875 0 L 4.375 0 L 4.375 -6.296875 C 4.375 -6.597656 4.304688 -6.832031 4.171875 -7 C 4.046875 -7.175781 3.804688 -7.265625 3.453125 -7.265625 C 3.097656 -7.265625 2.773438 -7.125 2.484375 -6.84375 C 2.191406 -6.570312 2.046875 -6.3125 2.046875 -6.0625 Z M 2.046875 0 "/></g></g></g><g fill="#ffffff" fill-opacity="1"><g transform="translate(276.814557, 225.299985)"><g><path d="M 2.796875 -3.234375 L 2.796875 -3.953125 L 4.984375 -3.953125 L 4.984375 -1.5 C 4.984375 -0.96875 4.816406 -0.550781 4.484375 -0.25 C 4.160156 0.0390625 3.671875 0.1875 3.015625 0.1875 C 2.359375 0.1875 1.859375 0.0390625 1.515625 -0.25 C 1.179688 -0.550781 1.015625 -0.96875 1.015625 -1.5 L 1.015625 -6.296875 C 1.015625 -6.835938 1.175781 -7.253906 1.5 -7.546875 C 1.832031 -7.835938 2.328125 -7.984375 2.984375 -7.984375 C 3.640625 -7.984375 4.132812 -7.835938 4.46875 -7.546875 C 4.8125 -7.253906 4.984375 -6.835938 4.984375 -6.296875 L 4.984375 -5.640625 L 4.140625 -5.640625 L 4.140625 -6.296875 C 4.140625 -6.941406 3.757812 -7.265625 3 -7.265625 C 2.238281 -7.265625 1.859375 -6.941406 1.859375 -6.296875 L 1.859375 -1.5 C 1.859375 -0.863281 2.238281 -0.546875 3 -0.546875 C 3.757812 -0.546875 4.140625 -0.863281 4.140625 -1.5 L 4.140625 -3.234375 Z M 2.796875 -3.234375 "/></g></g></g></svg>